
        <svg xmlns="http://www.w3.org/2000/svg" xmlns:xlink="http://www.w3.org/1999/xlink" version="1.1" width="3171.4285714285716" 
        height="2016.096129263159" viewBox="0 0 3171.4285714285716 2016.096129263159">
			
			<g transform="scale(8.571428571428571) translate(10, 10)">
				<defs id="SvgjsDefs7111"></defs><g id="SvgjsG7112" featureKey="symbolGroupContainer" transform="matrix(1,0,0,1,97,0)" fill="#603cff"><rect xmlns="http://www.w3.org/2000/svg" width="157" height="172" rx="10" ry="10"></rect></g><g id="SvgjsG7113" featureKey="aMgJeN-0" transform="matrix(0.5636070853462158,0,0,0.5636070853462158,78.11111111111111,-12.125603864734302)" fill="#ffffff"><defs xmlns="http://www.w3.org/2000/svg"></defs><g xmlns="http://www.w3.org/2000/svg"><path class="fil0 str0" d="M181 182l0 110c18,-9 79,-45 95,-54l0 -110c-19,10 -74,42 -95,54z" style="stroke: black; stroke-width: 6.66535; stroke-linecap: round; stroke-linejoin: round; fill: none;"></path><path class="fil0 str0" d="M69 238c23,13 78,45 94,54l0 -110 -41 -23 0 27c-5,-4 -12,-6 -17,-9l0 -28c-12,-7 -24,-14 -36,-21l0 110z" style="stroke: black; stroke-width: 6.66535; stroke-linecap: round; stroke-linejoin: round; fill: none;"></path><path class="fil1 str0" d="M129 146c6,3 33,18 40,22 0,0 101,-55 101,-55l-43 -24c-8,4 -98,57 -98,57z" style="stroke: black; stroke-width: 6.66535; stroke-linecap: round; stroke-linejoin: round; fill: #ffffff;"></path><path class="fil1 str0" d="M77 111c8,5 39,20 39,20 31,-18 63,-35 93,-54 -7,-4 -34,-18 -37,-20 -2,1 -78,44 -95,54z" style="stroke: black; stroke-width: 6.66535; stroke-linecap: round; stroke-linejoin: round; fill: #ffffff;"></path></g></g><g id="SvgjsG7114" featureKey="8L6ael-0" transform="matrix(1.383266477503979,0,0,1.383266477503979,-2.2322159104169477,187.5182195678631)" fill="#603cff"><path d="M25.76 3.280000000000001 c0.32 0 0.42 0.18 0.44 0.3 c0.04 0.14 0.02 0.3 -0.04 0.48 l-4.46 13.84 c-0.3 0.74 -0.58 1.22 -0.88 1.48 c-0.08 0.06 -0.18 0.14 -0.3 0.2 c-0.4 0.28 -0.88 0.42 -1.38 0.42 c-1.1 0 -2.08 -0.74 -2.38 -1.78 l-0.14 -0.3 l-2.76 -9.22 l-2.96 9.2 c-0.3 0.74 -0.6 1.22 -0.88 1.48 c-0.1 0.06 -0.18 0.14 -0.3 0.2 c-0.4 0.28 -0.88 0.42 -1.38 0.42 c-1.1 0 -2.08 -0.74 -2.38 -1.78 l-0.14 -0.3 l-4.14 -13.86 c-0.08 -0.18 -0.08 -0.34 -0.04 -0.48 c0.02 -0.1 0.1 -0.3 0.42 -0.3 l2.14 0 c0.28 0 0.48 0.16 0.58 0.44 l3.5 12.02 c0 0.02 0.02 0.04 0.02 0.04 l0.08 -0.02 l0.02 -0.04 l3.78 -12 c0.12 -0.28 0.32 -0.44 0.58 -0.44 l2.26 0 c0.26 0 0.46 0.16 0.56 0.44 l3.5 12.02 c0 0.02 0.02 0.04 0.02 0.04 l0.08 -0.02 l0.02 -0.04 l3.78 -12 c0.12 -0.28 0.32 -0.44 0.58 -0.44 l2.2 0 z M44.717999999999996 16.42 c0.18 0 0.58 0.06 0.58 0.68 l0 2.2 c0 0.62 -0.4 0.68 -0.58 0.68 l-7.1 0 c-0.88 0 -1.62 -0.1 -2.24 -0.34 c-0.64 -0.22 -1.16 -0.58 -1.56 -1.1 c-0.38 -0.5 -0.68 -1.16 -0.86 -1.96 c-0.14 -0.66 -0.24 -1.46 -0.26 -2.4 l0 -0.1 l0.04 -2.52 c0.04 -0.18 0.12 -0.34 0.22 -0.5 c0.28 -0.5 0.78 -0.8 1.36 -0.84 l10.32 -0.02 c0.16 0 0.56 0.06 0.56 0.68 l0 1.58 c0 0.62 -0.4 0.7 -0.56 0.7 l-8.94 0 c-0.02 0 -0.04 1.44 -0.04 1.44 l0.04 0.34 c0.06 0.38 0.18 0.68 0.34 0.9 c0.16 0.2 0.34 0.34 0.6 0.44 c0.28 0.08 0.62 0.14 1.04 0.14 l7.04 0 z M44.738 3.4800000000000004 c0.16 0 0.56 0.08 0.56 0.7 l0 1.58 c0 0.62 -0.4 0.7 -0.56 0.7 l-11.5 -0.02 c-0.16 0 -0.54 -0.06 -0.54 -0.68 l0 -1.56 c0 -0.64 0.38 -0.72 0.54 -0.72 l11.5 0 z M65.596 8.62 c0 1.24 -0.32 2.22 -1 2.9 c0.72 0.66 1.1 1.66 1.1 2.98 l0 1.34 c0 0.62 -0.06 1.2 -0.16 1.7 c-0.12 0.52 -0.28 0.96 -0.54 1.32 c-0.24 0.38 -0.58 0.66 -1 0.86 c-0.4 0.2 -0.9 0.3 -1.5 0.3 l-9 0 c-0.62 0 -1.2 -0.32 -1.52 -0.86 c-0.1 -0.18 -0.18 -0.4 -0.22 -0.62 l0.02 -13.66 c0.04 -0.16 0.12 -0.34 0.2 -0.5 c0.3 -0.48 0.8 -0.8 1.38 -0.84 l0 -0.02 l8.84 0 c1.22 0 2.1 0.34 2.62 1.02 c0.52 0.66 0.78 1.66 0.78 2.96 l0 1.12 z M54.696 16.94 c0 0.08 0.02 0.1 0.02 0.1 l6.96 0 c0.4 0 0.68 -0.08 0.84 -0.26 s0.24 -0.5 0.24 -0.96 l0 -1.36 c0 -0.44 -0.1 -0.76 -0.26 -0.96 c-0.18 -0.2 -0.52 -0.32 -1.04 -0.32 l-3.88 0 c-0.36 0 -0.66 -0.28 -0.66 -0.66 l0 -1.64 c0 -0.36 0.3 -0.66 0.66 -0.66 l3.88 0 c0.52 0 0.86 -0.1 1.02 -0.28 c0.18 -0.2 0.26 -0.5 0.26 -0.88 l0 -1.38 c0 -0.42 -0.08 -0.74 -0.24 -0.92 s-0.44 -0.28 -0.82 -0.28 l-6.94 0 c-0.02 0 -0.04 0.04 -0.04 0.12 l0 10.34 z M72.59400000000001 3.2399999999999984 l10.38 0 c1.38 0 2.36 0.34 2.94 0.98 c0.58 0.66 0.88 1.66 0.88 2.98 l0 1.14 c0 1.34 -0.4 2.34 -1.18 3.04 c0.86 0.66 1.28 1.7 1.28 3.1 l0 1.38 c0 0.64 -0.06 1.22 -0.18 1.74 c-0.12 0.5 -0.32 0.94 -0.6 1.3 s-0.66 0.64 -1.1 0.82 c-0.46 0.2 -1.02 0.3 -1.68 0.3 l-10.74 0 c-0.3 0 -0.44 -0.18 -0.44 -0.54 l0 -1.88 c0 -0.36 0.14 -0.54 0.44 -0.54 l9.84 0 c0.52 0 0.9 -0.12 1.14 -0.36 s0.36 -0.6 0.36 -1.12 l0 -1.12 c0 -0.5 -0.14 -0.88 -0.38 -1.14 s-0.7 -0.4 -1.38 -0.4 l-8.36 0 c-0.3 0 -0.46 -0.18 -0.46 -0.52 l0 -1.7 c0 -0.36 0.16 -0.54 0.46 -0.54 l8.36 0 c0.68 0 1.12 -0.12 1.36 -0.36 c0.26 -0.26 0.38 -0.6 0.38 -1.06 l0 -1.1 c0 -0.52 -0.12 -0.9 -0.36 -1.12 c-0.24 -0.24 -0.62 -0.34 -1.16 -0.34 l-9.8 0 c-0.3 0 -0.44 -0.18 -0.44 -0.54 l0 -1.86 c0 -0.36 0.14 -0.54 0.44 -0.54 z M131.05 3.280000000000001 c0.32 0 0.42 0.18 0.44 0.3 c0.04 0.14 0.02 0.3 -0.04 0.48 l-4.46 13.84 c-0.3 0.74 -0.58 1.22 -0.88 1.48 c-0.08 0.06 -0.18 0.14 -0.3 0.2 c-0.4 0.28 -0.88 0.42 -1.38 0.42 c-1.1 0 -2.08 -0.74 -2.38 -1.78 l-0.14 -0.3 l-2.76 -9.22 l-2.96 9.2 c-0.3 0.74 -0.6 1.22 -0.88 1.48 c-0.1 0.06 -0.18 0.14 -0.3 0.2 c-0.4 0.28 -0.88 0.42 -1.38 0.42 c-1.1 0 -2.08 -0.74 -2.38 -1.78 l-0.14 -0.3 l-4.14 -13.86 c-0.08 -0.18 -0.08 -0.34 -0.04 -0.48 c0.02 -0.1 0.1 -0.3 0.42 -0.3 l2.14 0 c0.28 0 0.48 0.16 0.58 0.44 l3.5 12.02 c0 0.02 0.02 0.04 0.02 0.04 l0.08 -0.02 l0.02 -0.04 l3.78 -12 c0.12 -0.28 0.32 -0.44 0.58 -0.44 l2.26 0 c0.26 0 0.46 0.16 0.56 0.44 l3.5 12.02 c0 0.02 0.02 0.04 0.02 0.04 l0.08 -0.02 l0.02 -0.04 l3.78 -12 c0.12 -0.28 0.32 -0.44 0.58 -0.44 l2.2 0 z M152.008 19.14 c0.08 0.12 0.1 0.28 0.08 0.48 c-0.04 0.24 -0.22 0.4 -0.46 0.4 l-2.2 0 c-0.18 0 -0.32 -0.04 -0.42 -0.12 c-0.08 -0.06 -0.14 -0.16 -0.22 -0.28 l-3.62 -6.42 l-4.22 0 l0 6.12 c0 0.62 -0.38 0.7 -0.56 0.7 l-1.82 0 c-0.18 0 -0.58 -0.08 -0.58 -0.7 l0 -8.4 c0 -0.62 0.4 -0.68 0.58 -0.68 l8.7 0 c0.52 0 0.86 -0.14 1.06 -0.44 c0.22 -0.3 0.32 -0.78 0.32 -1.44 s-0.1 -1.14 -0.32 -1.44 c-0.2 -0.3 -0.54 -0.44 -1.06 -0.44 l-8.7 0 c-0.18 0 -0.58 -0.06 -0.58 -0.68 l0 -1.58 c0 -0.64 0.4 -0.7 0.58 -0.7 l9.22 0 c1.36 0 2.36 0.42 2.96 1.28 c0.54 0.82 0.84 1.98 0.88 3.5 l0 0.12 c-0.04 1.54 -0.34 2.7 -0.88 3.5 c-0.5 0.68 -1.26 1.1 -2.24 1.22 z M169.286 5.380000000000001 l5.62 13.86 c0.08 0.18 0.1 0.36 0.06 0.48 c-0.04 0.1 -0.12 0.3 -0.44 0.3 l-2.14 0 c-0.28 0 -0.48 -0.16 -0.58 -0.44 l-4.96 -12.38 l-0.02 -0.04 l-0.08 0 s-0.02 0.02 -0.04 0.06 l-2.56 6.48 l2.48 0 c0.26 0 0.48 0.16 0.58 0.4 l0.72 1.78 c0.06 0.2 0.04 0.42 -0.08 0.58 c-0.1 0.18 -0.3 0.28 -0.52 0.28 l-4.38 0 l-1.14 2.86 c-0.1 0.26 -0.3 0.42 -0.56 0.42 l-2.2 0 c-0.32 0 -0.42 -0.18 -0.44 -0.3 c-0.04 -0.12 -0.02 -0.3 0.04 -0.48 l5.58 -13.86 c0.28 -0.72 0.58 -1.2 0.88 -1.46 c0.08 -0.06 0.18 -0.14 0.3 -0.2 c0.4 -0.28 0.88 -0.42 1.38 -0.42 c1.1 0 2.06 0.74 2.38 1.78 z M191.264 3.5199999999999996 c1.36 0 2.34 0.42 2.94 1.28 c0.58 0.8 0.86 1.96 0.88 3.5 c0 1.58 -0.28 2.78 -0.88 3.62 s-1.58 1.26 -2.94 1.26 l-6.84 0.02 l0 6.12 c0 0.62 -0.4 0.7 -0.56 0.7 l-1.84 0 c-0.16 0 -0.56 -0.08 -0.56 -0.7 l0 -8.4 c0 -0.62 0.4 -0.68 0.56 -0.68 l8.72 0 c0.5 0 0.86 -0.14 1.06 -0.44 c0.22 -0.3 0.32 -0.78 0.32 -1.44 s-0.1 -1.14 -0.32 -1.44 c-0.2 -0.3 -0.56 -0.44 -1.06 -0.44 l-8.72 0 c-0.16 0 -0.56 -0.06 -0.56 -0.68 l0 -1.58 c0 -0.64 0.4 -0.7 0.56 -0.7 l9.24 0 z M211.342 3.5199999999999996 c1.36 0 2.34 0.42 2.94 1.28 c0.58 0.8 0.86 1.96 0.88 3.5 c0 1.58 -0.28 2.78 -0.88 3.62 s-1.58 1.26 -2.94 1.26 l-6.84 0.02 l0 6.12 c0 0.62 -0.4 0.7 -0.56 0.7 l-1.84 0 c-0.16 0 -0.56 -0.08 -0.56 -0.7 l0 -8.4 c0 -0.62 0.4 -0.68 0.56 -0.68 l8.72 0 c0.5 0 0.86 -0.14 1.06 -0.44 c0.22 -0.3 0.32 -0.78 0.32 -1.44 s-0.1 -1.14 -0.32 -1.44 c-0.2 -0.3 -0.56 -0.44 -1.06 -0.44 l-8.72 0 c-0.16 0 -0.56 -0.06 -0.56 -0.68 l0 -1.58 c0 -0.64 0.4 -0.7 0.56 -0.7 l9.24 0 z M233.64000000000001 16.42 c0.18 0 0.58 0.06 0.58 0.68 l0 2.2 c0 0.62 -0.4 0.68 -0.58 0.68 l-7.1 0 c-0.88 0 -1.62 -0.1 -2.24 -0.34 c-0.64 -0.22 -1.16 -0.58 -1.56 -1.1 c-0.38 -0.5 -0.68 -1.16 -0.86 -1.96 c-0.14 -0.66 -0.24 -1.46 -0.26 -2.4 l0 -0.1 l0.04 -2.52 c0.04 -0.18 0.12 -0.34 0.22 -0.5 c0.28 -0.5 0.78 -0.8 1.36 -0.84 l10.32 -0.02 c0.16 0 0.56 0.06 0.56 0.68 l0 1.58 c0 0.62 -0.4 0.7 -0.56 0.7 l-8.94 0 c-0.02 0 -0.04 1.44 -0.04 1.44 l0.04 0.34 c0.06 0.38 0.18 0.68 0.34 0.9 c0.16 0.2 0.34 0.34 0.6 0.44 c0.28 0.08 0.62 0.14 1.04 0.14 l7.04 0 z M233.66000000000003 3.4800000000000004 c0.16 0 0.56 0.08 0.56 0.7 l0 1.58 c0 0.62 -0.4 0.7 -0.56 0.7 l-11.5 -0.02 c-0.16 0 -0.54 -0.06 -0.54 -0.68 l0 -1.56 c0 -0.64 0.38 -0.72 0.54 -0.72 l11.5 0 z M254.338 7.24 c0.2 0.84 0.3 1.84 0.3 2.96 l0 3.14 c0 1.12 -0.1 2.12 -0.3 2.96 s-0.54 1.54 -0.96 2.08 c-0.44 0.56 -1.02 0.98 -1.7 1.24 c-0.66 0.26 -1.48 0.4 -2.42 0.4 l-6.84 0 c-0.62 0 -1.2 -0.32 -1.52 -0.86 c-0.1 -0.18 -0.18 -0.4 -0.22 -0.62 l0.02 -13.66 c0.04 -0.16 0.12 -0.34 0.2 -0.5 c0.3 -0.48 0.8 -0.8 1.38 -0.84 l0 -0.02 l6.98 0 c0.94 0 1.74 0.14 2.42 0.4 s1.26 0.68 1.7 1.22 c0.42 0.56 0.76 1.26 0.96 2.1 z M243.618 16.94 c0 0.08 0.02 0.1 0.02 0.1 l5.56 0 c0.46 0 0.86 -0.04 1.18 -0.16 s0.56 -0.3 0.74 -0.54 c0.2 -0.26 0.34 -0.6 0.42 -1.04 s0.14 -1 0.14 -1.66 l0 -3.74 c0 -0.66 -0.06 -1.22 -0.14 -1.68 c-0.08 -0.42 -0.22 -0.76 -0.42 -1.02 c-0.18 -0.26 -0.42 -0.42 -0.74 -0.54 s-0.72 -0.18 -1.18 -0.18 l-5.54 0 c-0.02 0 -0.04 0.04 -0.04 0.12 l0 10.34 z"></path></g>
			</g>
		</svg>
	